<?xml version="1.0" encoding="UTF-8"?>
<svg width="85px" height="55px" viewBox="0 0 85 55" version="1.1" xmlns="http://www.w3.org/2000/svg" xmlns:xlink="http://www.w3.org/1999/xlink">
    <!-- Generator: Sketch 41 (35326) - http://www.bohemiancoding.com/sketch -->
    <title>logo-nhl</title>
    <desc>Created with Sketch.</desc>
    <defs></defs>
    <g id="Page-1" stroke="none" stroke-width="1" fill="none" fill-rule="evenodd">
        <g id="White" fill="#FFFFFF">
            <g id="Hogeschool" transform="translate(0.000000, 45.000000)">
                <polygon id="Shape" points="79.812599 8.725391 84.423508 8.725391 84.423508 7.414597 81.260918 7.414597 81.260918 1.267742 79.812599 1.267742"></polygon>
                <path d="M63.694569,1.069801 C61.334423,1.078975 59.650093,2.588169 59.645481,4.995304 C59.650093,7.403591 61.334423,8.913925 63.694569,8.920807 C66.055855,8.913925 67.739037,7.403591 67.747101,4.995304 C67.739037,2.588169 66.055855,1.078976 63.694569,1.069801 M63.694569,7.610012 C62.17141,7.607719 61.159428,6.494175 61.157128,4.995304 C61.159428,3.49873 62.17141,2.382893 63.694569,2.380596 C65.218872,2.382892 66.229699,3.49873 66.232003,4.995304 C66.229698,6.494175 65.218872,7.607719 63.694569,7.610012" id="Shape"></path>
                <path d="M73.538422,1.069801 C71.178276,1.078975 69.496247,2.588169 69.489334,4.995304 C69.496246,7.403591 71.178276,8.913925 73.538422,8.920807 C75.900856,8.913925 77.582886,7.403591 77.589798,4.995304 C77.582886,2.588169 75.900856,1.078976 73.538422,1.069801 M73.538422,7.610012 C72.015259,7.607719 71.003281,6.494175 71.000977,4.995304 C71.003281,3.49873 72.015259,2.382893 73.538422,2.380596 C75.06157,2.382892 76.073555,3.49873 76.075852,4.995304 C76.073555,6.494175 75.061569,7.607719 73.538422,7.610012" id="Shape"></path>
                <polygon id="Shape" points="56.105503 5.38969 56.105503 8.725735 57.550365 8.725735 57.550365 1.266937 56.105503 1.266937 56.105503 4.144264 52.528446 4.144264 52.528446 1.266937 51.082424 1.266937 51.082424 8.725735 52.528446 8.725735 52.528446 5.38969"></polygon>
                <path d="M42.397461,4.995537 C42.404366,7.40382 44.085247,8.914158 46.446537,8.92104 C47.434345,8.92104 48.442875,8.541447 49.066872,7.737538 L47.854565,6.836156 C47.478089,7.326985 46.905896,7.612538 46.230091,7.610246 C44.911873,7.607953 43.911404,6.492112 43.909099,4.995538 C43.911403,3.501256 44.914173,2.383123 46.284206,2.38083 C46.89899,2.378534 47.404411,2.589547 47.764759,2.964551 L48.88036,2.056283 C48.254059,1.336091 47.251286,1.070035 46.446537,1.070035 C44.085247,1.079208 42.404366,2.587254 42.397461,4.995537" id="Shape"></path>
                <path d="M37.783329,8.921955 C39.344475,8.912781 40.637375,8.14901 40.640827,6.511379 C40.635067,5.231548 39.832622,4.841636 38.948433,4.545757 C38.089573,4.256767 37.106373,4.160434 37.072987,3.307213 C37.090256,2.603077 37.848954,2.381745 38.354367,2.379452 C38.755017,2.384037 39.26043,2.515923 39.587395,2.830147 L40.572899,1.759033 C39.961567,1.269348 39.194809,1.070949 38.385452,1.070949 C36.906048,1.077831 35.563644,1.890914 35.561344,3.448272 C35.565948,4.655853 36.384514,5.057231 37.290577,5.372604 C38.164406,5.682239 39.160271,5.81871 39.193657,6.675369 C39.178688,7.340515 38.467194,7.608867 37.88234,7.61116 C37.322815,7.61116 36.769047,7.368038 36.390271,6.948311 L35.363324,8.072174 C36.05294,8.661633 36.857693,8.919662 37.783329,8.921955" id="Shape"></path>
                <polygon id="Shape" points="28.191372 1.137352 33.455059 1.137352 33.455059 2.707325 29.898731 2.707325 29.898731 4.145412 33.25819 4.145412 33.25819 5.715382 29.898731 5.715382 29.898731 7.285355 33.651932 7.285355 33.651932 8.855328 28.191372 8.855328"></polygon>
                <path d="M25.887646,8.310482 C24.880268,8.833424 23.775029,9.051315 22.637556,9.051315 C20.218702,9.051315 18.456079,7.471023 18.456079,4.996223 C18.456079,2.521427 20.218702,0.941135 22.637556,0.941135 C23.862526,0.941135 24.947042,1.212925 25.723009,1.931972 L24.519911,3.241615 C24.060549,2.761108 23.502175,2.50996 22.637556,2.50996 C21.182329,2.50996 20.229063,3.556988 20.229063,4.996223 C20.229063,6.435463 21.182329,7.481342 22.637556,7.481342 C23.381288,7.481342 23.928148,7.274917 24.245905,7.100605 L24.245905,5.847153 L22.8563,5.847153 L22.8563,4.276032 L25.887645,4.276032 L25.887645,8.310482 L25.887646,8.310482 Z" id="Shape"></path>
                <path d="M12.79393,0.941479 C15.212784,0.941479 16.974253,2.521771 16.974253,4.996567 C16.974253,7.470223 15.212784,9.051659 12.79393,9.051659 C10.375071,9.051659 8.613603,7.470223 8.613603,4.996567 C8.613603,2.52177 10.375072,0.941479 12.79393,0.941479 M12.79393,7.481686 C14.249158,7.481686 15.201273,6.435807 15.201273,4.996567 C15.201273,3.557331 14.249158,2.510304 12.79393,2.510304 C11.338697,2.510304 10.386582,3.557332 10.386582,4.996567 C10.386582,6.435806 11.338697,7.481686 12.79393,7.481686" id="Shape"></path>
                <polygon id="Shape" points="0.049399 1.137352 1.756759 1.137352 1.756759 4.015823 5.072468 4.015823 5.072468 1.137352 6.779828 1.137352 6.779828 8.855328 5.072468 8.855328 5.072468 5.519279 1.756759 5.519279 1.756759 8.855328 0.049399 8.855328"></polygon>
            </g>
            <g id="NHL">
                <polygon id="Shape" points="62.278595 1.216671 62.278595 37.472809 81.316292 37.472809 84.689568 30.580528 69.19783 30.580528 69.19783 0.363455"></polygon>
                <polygon id="Shape" points="49.38728 37.472458 56.306515 37.472458 56.306515 1.950282 49.38728 2.797766 49.38728 14.779549 37.835255 19.123631 37.835255 4.207181 30.916012 5.055821 30.916012 37.472458 37.835255 37.472458 37.835255 26.490685 49.38728 22.145456"></polygon>
                <polygon id="Shape" points="18.842682 30.620205 18.842682 37.472347 25.760771 37.472347 25.760771 5.693329 18.842682 6.540813 18.842682 20.485922 7.17783 7.951384 0.179149 8.805745 0.179149 37.472347 7.09724 37.472347 7.09724 18.006538"></polygon>
            </g>
        </g>
    </g>
</svg>