<?xml version="1.0" encoding="UTF-8"?>
<svg width="496px" height="65px" viewBox="0 0 496 65" version="1.1" xmlns="http://www.w3.org/2000/svg" xmlns:xlink="http://www.w3.org/1999/xlink">
    <!-- Generator: Sketch 41 (35326) - http://www.bohemiancoding.com/sketch -->
    <title>Untitled</title>
    <desc>Created with Sketch.</desc>
    <defs>
        <polygon id="path-1" points="0.841 64.94 495.22 64.94 495.22 0.239 0.841 0.239"></polygon>
    </defs>
    <g id="Page-1" stroke="none" stroke-width="1" fill="none" fill-rule="evenodd">
        <g id="HuisAanHuis">
            <mask id="mask-2" fill="white">
                <use xlink:href="#path-1"></use>
            </mask>
            <g id="Clip-2"></g>
            <path d="M26.889,23.647 L18.441,23.647 L18.441,0.943 L0.841,0.943 L0.841,63.775 L18.441,63.775 L18.441,38.431 L26.889,38.431 L26.889,63.775 L44.489,63.775 L44.489,0.943 L26.889,0.943 L26.889,23.647 Z M74.672,63.775 L91.216,63.775 L91.216,16.167 L74.144,16.167 L74.144,47.671 C74.144,50.399 73,52.335 70.712,52.335 C68.512,52.335 67.368,51.279 67.368,47.671 L67.368,16.167 L50.296,16.167 L50.296,52.951 C50.296,61.663 55.84,65.007 61.912,65.007 C67.632,65.007 71.944,62.983 74.496,58.319 L74.672,58.319 L74.672,63.775 Z M96.408,63.775 L113.48,63.775 L113.48,16.167 L96.408,16.167 L96.408,63.775 Z M96.408,12.383 L113.48,12.383 L113.48,0.239 L96.408,0.239 L96.408,12.383 Z M117.176,48.463 C117.44,61.751 124.216,65.007 136.624,65.007 C147.183,65.007 156.159,60.871 156.159,49.079 C156.159,38.959 150.351,36.671 145.599,34.999 C135.304,31.391 133.016,30.511 133.016,28.223 C133.016,25.583 134.864,24.967 136.624,24.967 C138.472,24.967 139.44,25.407 140.056,26.287 C140.584,27.079 140.76,28.487 140.76,29.719 L155.191,29.719 C155.191,25.319 155.191,14.935 136.184,14.935 C122.984,14.935 117.528,21.359 117.528,30.951 C117.528,39.663 122.456,42.215 133.456,46.087 C139.616,48.287 140.144,48.991 140.144,51.279 C140.144,52.159 139.616,54.975 136.624,54.975 C134.688,54.975 133.632,54.271 133.016,53.127 C132.4,51.983 132.312,50.487 132.136,48.463 L117.176,48.463 Z M205.087,47.583 C205.087,50.311 204.383,53.391 201.039,53.391 C198.663,53.391 197.607,51.455 197.607,48.639 C197.607,45.823 198.047,43.623 200.863,42.567 C202.711,41.863 204.031,41.423 205.087,40.719 L205.087,47.583 Z M220.575,28.663 C220.575,21.271 217.495,14.935 201.919,14.935 C188.367,14.935 182.735,20.215 182.735,30.951 L197.695,30.951 C197.695,28.223 198.223,25.495 201.831,25.495 C203.679,25.495 205.087,26.815 205.087,29.191 C205.087,32.271 203.855,33.327 200.335,34.119 L192.415,35.967 C185.991,37.463 181.063,40.367 181.063,50.927 C181.063,60.167 184.935,65.007 193.999,65.007 C198.839,65.007 203.151,63.335 205.175,58.671 L205.351,58.759 C205.351,60.343 205.527,62.103 206.143,63.775 L222.159,63.775 C221.103,61.575 220.575,59.199 220.575,56.735 L220.575,28.663 Z M249.087,47.583 C249.087,50.311 248.383,53.391 245.039,53.391 C242.663,53.391 241.607,51.455 241.607,48.639 C241.607,45.823 242.047,43.623 244.863,42.567 C246.711,41.863 248.031,41.423 249.087,40.719 L249.087,47.583 Z M264.575,28.663 C264.575,21.271 261.495,14.935 245.919,14.935 C232.367,14.935 226.735,20.215 226.735,30.951 L241.695,30.951 C241.695,28.223 242.223,25.495 245.831,25.495 C247.679,25.495 249.087,26.815 249.087,29.191 C249.087,32.271 247.855,33.327 244.335,34.119 L236.415,35.967 C229.991,37.463 225.063,40.367 225.063,50.927 C225.063,60.167 228.935,65.007 237.999,65.007 C242.839,65.007 247.151,63.335 249.175,58.671 L249.351,58.759 C249.351,60.343 249.527,62.103 250.143,63.775 L266.159,63.775 C265.103,61.575 264.575,59.199 264.575,56.735 L264.575,28.663 Z M294.143,63.775 L311.215,63.775 L311.215,26.991 C311.215,18.279 305.671,14.935 299.599,14.935 C293.879,14.935 289.567,16.959 287.015,21.623 L286.839,21.623 L286.839,16.167 L270.295,16.167 L270.295,63.775 L287.367,63.775 L287.367,32.271 C287.367,29.543 288.511,27.607 290.799,27.607 C292.999,27.607 294.143,28.663 294.143,32.271 L294.143,63.775 Z M365.95,23.647 L357.502,23.647 L357.502,0.943 L339.902,0.943 L339.902,63.775 L357.502,63.775 L357.502,38.431 L365.95,38.431 L365.95,63.775 L383.55,63.775 L383.55,0.943 L365.95,0.943 L365.95,23.647 Z M413.733,63.775 L430.277,63.775 L430.277,16.167 L413.205,16.167 L413.205,47.671 C413.205,50.399 412.061,52.335 409.773,52.335 C407.573,52.335 406.429,51.279 406.429,47.671 L406.429,16.167 L389.357,16.167 L389.357,52.951 C389.357,61.663 394.901,65.007 400.973,65.007 C406.693,65.007 411.005,62.983 413.557,58.319 L413.733,58.319 L413.733,63.775 Z M435.469,63.775 L452.541,63.775 L452.541,16.167 L435.469,16.167 L435.469,63.775 Z M435.469,12.383 L452.541,12.383 L452.541,0.239 L435.469,0.239 L435.469,12.383 Z M456.237,48.463 C456.501,61.751 463.277,65.007 475.685,65.007 C486.245,65.007 495.22,60.871 495.22,49.079 C495.22,38.959 489.412,36.671 484.661,34.999 C474.365,31.391 472.077,30.511 472.077,28.223 C472.077,25.583 473.925,24.967 475.685,24.967 C477.533,24.967 478.501,25.407 479.117,26.287 C479.645,27.079 479.821,28.487 479.821,29.719 L494.252,29.719 C494.252,25.319 494.252,14.935 475.245,14.935 C462.045,14.935 456.589,21.359 456.589,30.951 C456.589,39.663 461.517,42.215 472.517,46.087 C478.677,48.287 479.205,48.991 479.205,51.279 C479.205,52.159 478.677,54.975 475.685,54.975 C473.749,54.975 472.693,54.271 472.077,53.127 C471.461,51.983 471.373,50.487 471.197,48.463 L456.237,48.463 L456.237,48.463 Z" id="Fill-1" fill="#FFFFFF" mask="url(#mask-2)"></path>
        </g>
    </g>
</svg>